<?xml version="1.0" encoding="utf-8"?>
<!-- Generator: Adobe Illustrator 17.0.0, SVG Export Plug-In . SVG Version: 6.00 Build 0)  -->
<!DOCTYPE svg PUBLIC "-//W3C//DTD SVG 1.1//EN" "http://www.w3.org/Graphics/SVG/1.1/DTD/svg11.dtd">
<svg version="1.1" id="Layer_1" xmlns="http://www.w3.org/2000/svg" xmlns:xlink="http://www.w3.org/1999/xlink" x="0px" y="0px"
	 width="250px" height="150px" viewBox="0 0 250 150" enable-background="new 0 0 250 150" xml:space="preserve">
<path d="M119.404,148.88c-31.306-1.249-58.917-12.217-82.873-32.325C23.016,105.21,12.272,91.572,3.925,76.028
	c-0.575-1.07-0.101-1.767,0.341-2.59c7.972-14.86,18.285-27.857,31.022-38.915C52.065,19.958,71.25,10.041,92.836,4.766
	c11.003-2.689,22.169-3.908,33.485-3.752c8.879,0.122,17.16,2.495,24.91,6.786c0.245,0.136,0.465,0.318,0.777,0.534
	c-6.662,7.869-4.478,16.72-0.321,21.351c5.426,6.045,12.53,6.765,21.571,2.011c7.154,13.448,9.003,37.8-7.235,57.164
	c-16.251,19.38-44.858,25.53-68.591,11.561c13.271,14.277,40.365,26.28,69.581,17.841c17.433-5.036,31.075-15.302,40.786-30.614
	c9.697-15.289,12.757-32.022,10.055-50.286c0.663,0.593,1.035,0.907,1.387,1.243c10.821,10.322,19.749,22.078,26.764,35.289
	c0.417,0.786,0.465,1.384,0.024,2.207c-10.27,19.192-24.163,35.215-41.964,47.762C178.686,141.749,150.422,150.118,119.404,148.88"
	/>
</svg>
